M48
METRIC,TZ
T01C.5
T02C1.3
T03C1.5
T04C2.2
T05C3.2
;LEADER: 12 
;HEADER: 
;CODE  : ASCII 
;FILE  : HF_filter_02v3-1-2.drl for  ... layers TOP and BOTTOM
;DESIGN: HF_filter_02v3.brd
;T01 Holesize 1. = 0.500000 Tolerance = +0.000000/-0.000000 PLATED MM Quantity = 16
;T02 Holesize 2. = 1.300000 Tolerance = +0.000000/-0.000000 PLATED MM Quantity = 22
;T03 Holesize 3. = 1.500000 Tolerance = +0.000000/-0.000000 PLATED MM Quantity = 45
;T04 Holesize 4. = 2.200000 Tolerance = +0.000000/-0.000000 PLATED MM Quantity = 14
;T05 Holesize 5. = 3.200000 Tolerance = +0.000000/-0.000000 PLATED MM Quantity = 8
%
G90
T01
X930200Y30200
X922000Y50000
X969800Y30200
X978000Y50000
X950000Y22000
X930200Y69800
X969800
X950000Y78000
X930200Y1630200
X922000Y1650000
X969800Y1630200
X978000Y1650000
X950000Y1622000
X930200Y1669800
X969800
X950000Y1678000
T02
X110000Y660000
Y960000
X175000
Y660000
X292500Y1470000
X67500
X240000Y660000
Y960000
X370000Y660000
Y960000
X500000Y660000
Y960000
X630000Y660000
Y960000
X760000
Y660000
X695000Y960000
Y660000
X565000Y960000
Y660000
X305000Y960000
Y660000
T03
X160010Y350000
Y180000
X770010Y480010
X790010Y430000
X490010Y50000
X410000Y1560000
X830000Y1540000
X430000Y1605000
X770000Y1560000
X270000Y1305000
X580000Y1595000
X630000
X785000Y1515000
X810000Y1480000
X890000Y1340000
Y1290000
X845000Y1135000
X815000Y1090000
X730000Y1040000
X670000Y1020000
X440000Y1030000
X390000Y1050000
X310000Y1070000
X90000Y287500
X140000
X357500Y1610000
Y1560000
X307500Y1610000
Y1560000
X90000Y237500
X140000
X910000Y272500
X860000
X910000Y222500
X860000
X910000Y322500
X860000
X910000Y372500
X860000
X157500Y1610000
Y1560000
X207500Y1610000
Y1560000
X257500Y1610000
Y1560000
T04
X155000Y1030000
X205000
X155000Y1080000
X205000
X155000Y1130000
X205000
X155000Y1180000
X205000
X155000Y1230000
X205000
X155000Y1280000
X205000
X155000Y1330000
X205000
T05
X50000Y50000
Y1650000
X770000Y110000
X950000Y50000
Y1650000
X480000Y330000
X580000Y1290000
M30
