G04 ================== begin FILE IDENTIFICATION RECORD ==================*
G04 Layout Name:  d:/Project/Circuit/HF-Filter/02v3/pcb/HF_filter_02v3.brd*
G04 Film Name:    MASK_BOT*
G04 File Format:  Gerber RS274X*
G04 File Origin:  Cadence Allegro 16.6-S029*
G04 Origin Date:  Thu Jun 05 12:20:28 2014*
G04 *
G04 Layer:  VIA CLASS/SOLDERMASK_BOTTOM*
G04 Layer:  PIN/SOLDERMASK_BOTTOM*
G04 Layer:  PACKAGE GEOMETRY/SOLDERMASK_BOTTOM*
G04 *
G04 Offset:    (0.000 0.000)*
G04 Mirror:    No*
G04 Mode:      Positive*
G04 Rotation:  0*
G04 FullContactRelief:  No*
G04 UndefLineWidth:     0.000*
G04 ================== end FILE IDENTIFICATION RECORD ====================*
%FSLAX34Y34*MOMM*%
%IR0*IPPOS*OFA0.00000B0.00000*MIA0B0*SFA1.00000B1.00000*%
%ADD12C,2.3*%
%ADD14C,4.3*%
%ADD15C,4.4*%
%ADD11C,2.15*%
%ADD10C,5.4*%
%ADD16C,7.4*%
%ADD13R,4.3X4.3*%
G75*
%LPD*%
G75*
G36*
G01X985000Y50000D02*
G03I-35000J0D01*
G37*
G36*
G01Y1650000D02*
G03I-35000J0D01*
G37*
G54D10*
X50000Y50000D03*
Y1650000D03*
X770000Y110000D03*
G54D11*
X67500Y1470000D03*
X110000Y660000D03*
Y960000D03*
X175000Y660000D03*
Y960000D03*
X240000Y660000D03*
Y960000D03*
X292500Y1470000D03*
X305000Y660000D03*
X370000D03*
X305000Y960000D03*
X370000D03*
X500000Y660000D03*
Y960000D03*
X565000Y660000D03*
Y960000D03*
X630000Y660000D03*
Y960000D03*
X695000Y660000D03*
Y960000D03*
X760000Y660000D03*
Y960000D03*
G54D12*
X140000Y237500D03*
X90000D03*
X140000Y287500D03*
X90000D03*
X160010Y180000D03*
Y350000D03*
X207500Y1560000D03*
X157500D03*
X207500Y1610000D03*
X157500D03*
X270000Y1305000D03*
X257500Y1560000D03*
Y1610000D03*
X310000Y1070000D03*
X307500Y1560000D03*
X357500D03*
X307500Y1610000D03*
X357500D03*
X390000Y1050000D03*
X440000Y1030000D03*
X410000Y1560000D03*
X430000Y1605000D03*
X490010Y50000D03*
X580000Y1595000D03*
X670000Y1020000D03*
X630000Y1595000D03*
X730000Y1040000D03*
X790010Y430000D03*
X770010Y480010D03*
X815000Y1090000D03*
X810000Y1480000D03*
X785000Y1515000D03*
X830000Y1540000D03*
X770000Y1560000D03*
X860000Y222500D03*
Y272500D03*
Y322500D03*
Y372500D03*
X845000Y1135000D03*
X890000Y1290000D03*
Y1340000D03*
X910000Y222500D03*
Y272500D03*
Y322500D03*
Y372500D03*
G54D13*
X155000Y1030000D03*
Y1130000D03*
Y1080000D03*
Y1180000D03*
Y1280000D03*
Y1230000D03*
Y1330000D03*
G54D14*
X205000Y1030000D03*
Y1130000D03*
Y1080000D03*
Y1180000D03*
Y1280000D03*
Y1230000D03*
Y1330000D03*
G54D15*
X480000Y330000D03*
X580000Y1290000D03*
D03*
G54D16*
X950000Y50000D03*
Y1650000D03*
M02*
