G04 ================== begin FILE IDENTIFICATION RECORD ==================*
G04 Layout Name:  d:/Project/Circuit/HF-Filter/02v3/pcb/HF_filter_02v3.brd*
G04 Film Name:    SILK_TOP*
G04 File Format:  Gerber RS274X*
G04 File Origin:  Cadence Allegro 16.6-S029*
G04 Origin Date:  Thu Jun 05 12:20:28 2014*
G04 *
G04 Layer:  MANUFACTURING/AUTOSILK_TOP*
G04 *
G04 Offset:    (0.000 0.000)*
G04 Mirror:    No*
G04 Mode:      Positive*
G04 Rotation:  0*
G04 FullContactRelief:  No*
G04 UndefLineWidth:     0.200*
G04 ================== end FILE IDENTIFICATION RECORD ====================*
%FSLAX34Y34*MOMM*%
%IR0*IPPOS*OFA0.00000B0.00000*MIA0B0*SFA1.00000B1.00000*%
%ADD10C,.2*%
%ADD11C,.15*%
G75*
%LPD*%
G75*
G54D10*
G01X190000Y262500D02*
Y212500D01*
X50000D01*
Y262500D01*
X190000D01*
G01X60000D02*
Y212500D01*
G01X190000Y312500D02*
Y262500D01*
X50000D01*
Y312500D01*
X190000D01*
G01X60000D02*
Y262500D01*
G01X55000Y690000D02*
Y930000D01*
X165000D01*
Y690000D01*
X55000D01*
G01X65000Y262500D02*
Y267500D01*
X75000D01*
Y262500D01*
G01X65000Y312500D02*
Y317500D01*
X75000D01*
Y312500D01*
G01X110000Y690000D02*
Y675000D01*
G01Y930000D02*
Y945000D01*
G01X130000Y1005000D02*
Y1055000D01*
X230000D01*
Y1005000D01*
X130000D01*
G01Y1105000D02*
Y1155000D01*
X230000D01*
Y1105000D01*
X130000D01*
G01Y1055000D02*
Y1105000D01*
X230000D01*
Y1055000D01*
X130000D01*
G01Y1155000D02*
Y1205000D01*
X230000D01*
Y1155000D01*
X130000D01*
G01Y1255000D02*
Y1305000D01*
X230000D01*
Y1255000D01*
X130000D01*
G01Y1205000D02*
Y1255000D01*
X230000D01*
Y1205000D01*
X130000D01*
G01Y1305000D02*
Y1355000D01*
X230000D01*
Y1305000D01*
X130000D01*
G01X260000Y1442500D02*
X100000D01*
Y1497500D01*
X260000D01*
Y1442500D01*
G01X100000Y1470000D02*
X80250D01*
G01X182500Y1510000D02*
X132500D01*
Y1650000D01*
X182500D01*
Y1510000D01*
G01Y1640000D02*
X132500D01*
G01X180000Y262500D02*
Y267500D01*
X170000D01*
Y262500D01*
G01X180000Y312500D02*
Y317500D01*
X170000D01*
Y312500D01*
G01X185000Y690000D02*
Y930000D01*
X295000D01*
Y690000D01*
X185000D01*
G01X232500Y1510000D02*
X182500D01*
Y1650000D01*
X232500D01*
Y1510000D01*
G01X182500Y1520000D02*
X187500D01*
Y1530000D01*
X182500D01*
G01X232500Y1640000D02*
X182500D01*
G01Y1635000D02*
X187500D01*
Y1625000D01*
X182500D01*
G01X220000Y330000D02*
G03X480000Y70000I260000J0D01*
G01Y590000D02*
G03X220000Y330000I0J-260000D01*
G01X240000Y690000D02*
Y675000D01*
G01Y930000D02*
Y945000D01*
G01X260000Y1470000D02*
X279750D01*
G01X332500Y1510000D02*
X282500D01*
Y1650000D01*
X332500D01*
Y1510000D01*
G01X282500D02*
X232500D01*
Y1650000D01*
X282500D01*
Y1510000D01*
G01Y1520000D02*
X287500D01*
Y1530000D01*
X282500D01*
G01X232500Y1520000D02*
X237500D01*
Y1530000D01*
X232500D01*
G01X332500Y1640000D02*
X282500D01*
G01D02*
X232500D01*
G01X282500Y1635000D02*
X287500D01*
Y1625000D01*
X282500D01*
G01X232500Y1635000D02*
X237500D01*
Y1625000D01*
X232500D01*
G01X334180Y88820D02*
G03X394810Y53820I32810J-13178D01*
G01X344180Y106140D02*
X334350Y87490D01*
G01X315000Y690000D02*
Y930000D01*
X425000D01*
Y690000D01*
X315000D01*
G01X320000Y1290000D02*
G03X580000Y1030000I260000J0D01*
G01X320000Y1290000D02*
G03X580000Y1030000I260000J0D01*
G01Y1550000D02*
G03X320000Y1290000I0J-260000D01*
G01X580000Y1550000D02*
G03X320000Y1290000I0J-260000D01*
G01X332500Y1520000D02*
X337500D01*
Y1530000D01*
X332500D01*
G01X382500Y1510000D02*
X332500D01*
Y1650000D01*
X382500D01*
Y1510000D01*
G01X332500Y1635000D02*
X337500D01*
Y1625000D01*
X332500D01*
G01X382500Y1640000D02*
X332500D01*
G01X408150Y79420D02*
X394810Y53820D01*
G01X370000Y690000D02*
Y675000D01*
G01Y930000D02*
Y945000D01*
G01X382500Y1520000D02*
X387500D01*
Y1530000D01*
X382500D01*
G01Y1635000D02*
X387500D01*
Y1625000D01*
X382500D01*
G01X480000Y70000D02*
G03X740000Y330000I0J260000D01*
G01D02*
G03X480000Y590000I-260000J0D01*
G01X445000Y690000D02*
Y930000D01*
X555000D01*
Y690000D01*
X445000D01*
G01X500000D02*
Y675000D01*
G01Y930000D02*
Y945000D01*
G01X575000Y690000D02*
Y930000D01*
X685000D01*
Y690000D01*
X575000D01*
G01X580000Y1030000D02*
G03X840000Y1290000I0J260000D01*
G01X580000Y1030000D02*
G03X840000Y1290000I0J260000D01*
G01D02*
G03X580000Y1550000I-260000J0D01*
G01X840000Y1290000D02*
G03X580000Y1550000I-260000J0D01*
G01X630000Y690000D02*
Y675000D01*
G01Y930000D02*
Y945000D01*
G01X815000Y930000D02*
Y690000D01*
X705000D01*
Y930000D01*
X815000D01*
G01X810000Y197500D02*
Y247500D01*
X950000D01*
Y197500D01*
X810000D01*
G01X820000D02*
Y192500D01*
X830000D01*
Y197500D01*
G01X810000Y247500D02*
Y297500D01*
X950000D01*
Y247500D01*
X810000D01*
G01X820000D02*
Y242500D01*
X830000D01*
Y247500D01*
G01X810000Y347500D02*
Y397500D01*
X950000D01*
Y347500D01*
X810000D01*
G01X820000D02*
Y342500D01*
X830000D01*
Y347500D01*
G01X810000Y297500D02*
Y347500D01*
X950000D01*
Y297500D01*
X810000D01*
G01X820000D02*
Y292500D01*
X830000D01*
Y297500D01*
G01X760000Y690000D02*
Y675000D01*
G01Y930000D02*
Y945000D01*
G01X940000Y197500D02*
Y247500D01*
G01X935000Y197500D02*
Y192500D01*
X925000D01*
Y197500D01*
G01X940000Y247500D02*
Y297500D01*
G01X935000Y247500D02*
Y242500D01*
X925000D01*
Y247500D01*
G01X940000Y347500D02*
Y397500D01*
G01X935000Y347500D02*
Y342500D01*
X925000D01*
Y347500D01*
G01X940000Y297500D02*
Y347500D01*
G01X935000Y297500D02*
Y292500D01*
X925000D01*
Y297500D01*
G54D11*
G01X44850Y239240D02*
X38100Y226540D01*
G01X44850D02*
X38100Y239240D01*
G01X31580Y228660D02*
X30620Y227390D01*
X29490Y226750D01*
X28200Y226540D01*
X26590Y226960D01*
X25470Y228020D01*
X25150Y229290D01*
X25310Y230560D01*
X25950Y231620D01*
X29170Y233740D01*
X30620Y235220D01*
X31580Y237340D01*
X31900Y239240D01*
X25150D01*
G01X44850Y289240D02*
X38100Y276540D01*
G01X44850D02*
X38100Y289240D01*
G01X28530D02*
Y276540D01*
X30460Y279080D01*
G01Y289240D02*
X26600D01*
G01X322410Y581770D02*
Y561450D01*
G01X311750D02*
Y581770D01*
G01Y571610D02*
X322410D01*
G01X301590Y581770D02*
Y561450D01*
X291930D01*
G01X295490Y571270D02*
X301590D01*
G01X284060Y588540D02*
X268820D01*
G01X257640Y581770D02*
Y564500D01*
X257140Y562800D01*
X256120Y561790D01*
X254600Y561450D01*
X253070Y562130D01*
X252310Y563820D01*
G01X255360Y569580D02*
X260440D01*
G01X235800Y568220D02*
Y581770D01*
G01Y562800D02*
X236310Y562470D01*
Y561790D01*
X235800Y561450D01*
X235290Y561790D01*
Y562470D01*
X235800Y562800D01*
G01X215480Y581770D02*
Y561450D01*
G01X195160D02*
Y581770D01*
G01X198720Y568220D02*
X191600D01*
G01X178650Y572630D02*
X170520D01*
X171280Y570260D01*
X172550Y568900D01*
X174330Y568220D01*
X176110Y568560D01*
X177630Y569580D01*
X178650Y571950D01*
X179160Y573980D01*
Y576010D01*
X178650Y578040D01*
X177380Y580080D01*
X175860Y581430D01*
X174080Y581770D01*
X172300Y581090D01*
X170520Y579060D01*
G01X158080Y581770D02*
Y568220D01*
G01Y570930D02*
X156810Y569580D01*
X155540Y568560D01*
X153760Y568220D01*
X152490Y568560D01*
X150960Y569580D01*
G01X141820Y588540D02*
X126580D01*
G01X113880Y561450D02*
X115910Y562130D01*
X117440Y563820D01*
X118450Y565850D01*
X119210Y568560D01*
X119470Y571610D01*
X119210Y574660D01*
X118450Y577370D01*
X117440Y579400D01*
X115910Y581090D01*
X113880Y581770D01*
X111850Y581090D01*
X110320Y579400D01*
X109310Y577370D01*
X108550Y574660D01*
X108290Y571610D01*
X108550Y568560D01*
X109310Y565850D01*
X110320Y563820D01*
X111850Y562130D01*
X113880Y561450D01*
G01X98390Y564840D02*
X96860Y562800D01*
X95080Y561790D01*
X93050Y561450D01*
X90510Y562130D01*
X88730Y563820D01*
X88230Y565850D01*
X88480Y567890D01*
X89500Y569580D01*
X94580Y572960D01*
X96860Y575340D01*
X98390Y578720D01*
X98890Y581770D01*
X88230D01*
G01X77810Y568220D02*
X73240Y581770D01*
X68670Y568220D01*
G01X58510Y577710D02*
X56980Y580080D01*
X54950Y581430D01*
X52670Y581770D01*
X50630Y581430D01*
X48600Y579740D01*
X47330Y577710D01*
X47080Y575670D01*
X47590Y573300D01*
X49360Y571610D01*
X51140Y570930D01*
X53430D01*
G01X51140D02*
X49620Y569920D01*
X48350Y568220D01*
X47840Y566190D01*
X48350Y564160D01*
X49620Y562470D01*
X51900Y561450D01*
X54190Y561790D01*
X56480Y563140D01*
G01X149690Y949240D02*
Y936540D01*
X145670D01*
X144380Y937180D01*
X143580Y938020D01*
X143260Y939720D01*
X143580Y941410D01*
X144540Y942470D01*
X145670Y943100D01*
X149690D01*
G01X145670D02*
X143260Y949240D01*
G01X133530D02*
Y936540D01*
X135460Y939080D01*
G01Y949240D02*
X131600D01*
G01X115150Y1019840D02*
X113620Y1017800D01*
X111840Y1016790D01*
X109810Y1016450D01*
X107270Y1017130D01*
X105490Y1018820D01*
X104990Y1020850D01*
X105240Y1022890D01*
X106260Y1024580D01*
X111340Y1027960D01*
X113620Y1030340D01*
X115150Y1033720D01*
X115650Y1036770D01*
X104990D01*
G01X90000Y1016450D02*
X92030Y1017130D01*
X93560Y1018820D01*
X94570Y1020850D01*
X95330Y1023560D01*
X95590Y1026610D01*
X95330Y1029660D01*
X94570Y1032370D01*
X93560Y1034400D01*
X92030Y1036090D01*
X90000Y1036770D01*
X87970Y1036090D01*
X86440Y1034400D01*
X85430Y1032370D01*
X84670Y1029660D01*
X84410Y1026610D01*
X84670Y1023560D01*
X85430Y1020850D01*
X86440Y1018820D01*
X87970Y1017130D01*
X90000Y1016450D01*
G01X69680D02*
X71710Y1017130D01*
X73240Y1018820D01*
X74250Y1020850D01*
X75010Y1023560D01*
X75270Y1026610D01*
X75010Y1029660D01*
X74250Y1032370D01*
X73240Y1034400D01*
X71710Y1036090D01*
X69680Y1036770D01*
X67650Y1036090D01*
X66120Y1034400D01*
X65110Y1032370D01*
X64350Y1029660D01*
X64090Y1026610D01*
X64350Y1023560D01*
X65110Y1020850D01*
X66120Y1018820D01*
X67650Y1017130D01*
X69680Y1016450D01*
G01X110320Y1136770D02*
Y1116450D01*
X113370Y1120510D01*
G01Y1136770D02*
X107270D01*
G01X95590Y1132710D02*
X94060Y1135080D01*
X92030Y1136430D01*
X89750Y1136770D01*
X87710Y1136430D01*
X85680Y1134740D01*
X84410Y1132710D01*
X84160Y1130670D01*
X84670Y1128300D01*
X86440Y1126610D01*
X88220Y1125930D01*
X90510D01*
G01X88220D02*
X86700Y1124920D01*
X85430Y1123220D01*
X84920Y1121190D01*
X85430Y1119160D01*
X86700Y1117470D01*
X88980Y1116450D01*
X91270Y1116790D01*
X93560Y1118140D01*
G01X75270Y1133720D02*
X73740Y1135420D01*
X71970Y1136430D01*
X69680Y1136770D01*
X67390Y1136090D01*
X65620Y1134740D01*
X64350Y1132370D01*
X64090Y1129660D01*
X64600Y1126950D01*
X65870Y1125260D01*
X67650Y1123900D01*
X69430Y1123560D01*
X71200Y1123900D01*
X73490Y1125260D01*
X72730Y1116450D01*
X65870D01*
G01X110320Y1086770D02*
Y1066450D01*
X113370Y1070510D01*
G01Y1086770D02*
X107270D01*
G01X95590Y1083720D02*
X94060Y1085420D01*
X92290Y1086430D01*
X90000Y1086770D01*
X87710Y1086090D01*
X85940Y1084740D01*
X84670Y1082370D01*
X84410Y1079660D01*
X84920Y1076950D01*
X86190Y1075260D01*
X87970Y1073900D01*
X89750Y1073560D01*
X91520Y1073900D01*
X93810Y1075260D01*
X93050Y1066450D01*
X86190D01*
G01X69680D02*
X71710Y1067130D01*
X73240Y1068820D01*
X74250Y1070850D01*
X75010Y1073560D01*
X75270Y1076610D01*
X75010Y1079660D01*
X74250Y1082370D01*
X73240Y1084400D01*
X71710Y1086090D01*
X69680Y1086770D01*
X67650Y1086090D01*
X66120Y1084400D01*
X65110Y1082370D01*
X64350Y1079660D01*
X64090Y1076610D01*
X64350Y1073560D01*
X65110Y1070850D01*
X66120Y1068820D01*
X67650Y1067130D01*
X69680Y1066450D01*
G01X110320Y1186770D02*
Y1166450D01*
X113370Y1170510D01*
G01Y1186770D02*
X107270D01*
G01X90000Y1166450D02*
X92030Y1167130D01*
X93560Y1168820D01*
X94570Y1170850D01*
X95330Y1173560D01*
X95590Y1176610D01*
X95330Y1179660D01*
X94570Y1182370D01*
X93560Y1184400D01*
X92030Y1186090D01*
X90000Y1186770D01*
X87970Y1186090D01*
X86440Y1184400D01*
X85430Y1182370D01*
X84670Y1179660D01*
X84410Y1176610D01*
X84670Y1173560D01*
X85430Y1170850D01*
X86440Y1168820D01*
X87970Y1167130D01*
X90000Y1166450D01*
G01X69680D02*
X71710Y1167130D01*
X73240Y1168820D01*
X74250Y1170850D01*
X75010Y1173560D01*
X75270Y1176610D01*
X75010Y1179660D01*
X74250Y1182370D01*
X73240Y1184400D01*
X71710Y1186090D01*
X69680Y1186770D01*
X67650Y1186090D01*
X66120Y1184400D01*
X65110Y1182370D01*
X64350Y1179660D01*
X64090Y1176610D01*
X64350Y1173560D01*
X65110Y1170850D01*
X66120Y1168820D01*
X67650Y1167130D01*
X69680Y1166450D01*
G01X105750Y1283720D02*
X104220Y1285420D01*
X102450Y1286430D01*
X100160Y1286770D01*
X97870Y1286090D01*
X96100Y1284740D01*
X94830Y1282370D01*
X94570Y1279660D01*
X95080Y1276950D01*
X96350Y1275260D01*
X98130Y1273900D01*
X99910Y1273560D01*
X101680Y1273900D01*
X103970Y1275260D01*
X103210Y1266450D01*
X96350D01*
G01X79840D02*
X81870Y1267130D01*
X83400Y1268820D01*
X84410Y1270850D01*
X85170Y1273560D01*
X85430Y1276610D01*
X85170Y1279660D01*
X84410Y1282370D01*
X83400Y1284400D01*
X81870Y1286090D01*
X79840Y1286770D01*
X77810Y1286090D01*
X76280Y1284400D01*
X75270Y1282370D01*
X74510Y1279660D01*
X74250Y1276610D01*
X74510Y1273560D01*
X75270Y1270850D01*
X76280Y1268820D01*
X77810Y1267130D01*
X79840Y1266450D01*
G01X100670Y1236780D02*
X100160Y1232380D01*
X99400Y1228650D01*
X98380Y1225270D01*
X97110Y1221540D01*
X95080Y1216460D01*
X105240D01*
G01X85430Y1233730D02*
X83900Y1235430D01*
X82130Y1236440D01*
X79840Y1236780D01*
X77550Y1236100D01*
X75780Y1234750D01*
X74510Y1232380D01*
X74250Y1229670D01*
X74760Y1226960D01*
X76030Y1225270D01*
X77810Y1223910D01*
X79590Y1223570D01*
X81360Y1223910D01*
X83650Y1225270D01*
X82890Y1216460D01*
X76030D01*
G01X105750Y1332720D02*
X104220Y1335090D01*
X102190Y1336440D01*
X99910Y1336780D01*
X97870Y1336440D01*
X95840Y1334750D01*
X94570Y1332720D01*
X94320Y1330680D01*
X94830Y1328310D01*
X96600Y1326620D01*
X98380Y1325940D01*
X100670D01*
G01X98380D02*
X96860Y1324930D01*
X95590Y1323230D01*
X95080Y1321200D01*
X95590Y1319170D01*
X96860Y1317480D01*
X99140Y1316460D01*
X101430Y1316800D01*
X103720Y1318150D01*
G01X79840Y1316460D02*
X81870Y1317140D01*
X83400Y1318830D01*
X84410Y1320860D01*
X85170Y1323570D01*
X85430Y1326620D01*
X85170Y1329670D01*
X84410Y1332380D01*
X83400Y1334410D01*
X81870Y1336100D01*
X79840Y1336780D01*
X77810Y1336100D01*
X76280Y1334410D01*
X75270Y1332380D01*
X74510Y1329670D01*
X74250Y1326620D01*
X74510Y1323570D01*
X75270Y1320860D01*
X76280Y1318830D01*
X77810Y1317140D01*
X79840Y1316460D01*
G01X172960Y164240D02*
Y151540D01*
X174890Y154080D01*
G01Y164240D02*
X171030D01*
G01X160010Y164660D02*
X160330Y164450D01*
Y164030D01*
X160010Y163820D01*
X159680Y164030D01*
Y164450D01*
X160010Y164660D01*
G01X150110Y153660D02*
X149150Y152390D01*
X148020Y151750D01*
X146730Y151540D01*
X145120Y151960D01*
X144000Y153020D01*
X143680Y154290D01*
X143840Y155560D01*
X144480Y156620D01*
X147700Y158740D01*
X149150Y160220D01*
X150110Y162340D01*
X150430Y164240D01*
X143680D01*
G01X172960Y374240D02*
Y361540D01*
X174890Y364080D01*
G01Y374240D02*
X171030D01*
G01X160010Y374660D02*
X160330Y374450D01*
Y374030D01*
X160010Y373820D01*
X159680Y374030D01*
Y374450D01*
X160010Y374660D01*
G01X147060Y374240D02*
Y361540D01*
X148990Y364080D01*
G01Y374240D02*
X145130D01*
G01X322000Y622720D02*
X320730Y624750D01*
X319210Y626100D01*
X317430Y626780D01*
X315400Y626100D01*
X313870Y624750D01*
X312350Y622720D01*
X311840Y620010D01*
Y606460D01*
G01X300920Y613230D02*
Y622720D01*
X299900Y625090D01*
X298380Y626440D01*
X296600Y626780D01*
X294820Y626440D01*
X293300Y625090D01*
X292280Y622720D01*
G01Y626780D02*
Y613230D01*
G01X280600Y626780D02*
Y613230D01*
G01Y616620D02*
X279580Y614930D01*
X278060Y613570D01*
X276030Y613230D01*
X274250Y613570D01*
X272720Y614930D01*
X271960Y617300D01*
Y626780D01*
G01X259770Y617640D02*
X251640D01*
X252400Y615270D01*
X253670Y613910D01*
X255450Y613230D01*
X257230Y613570D01*
X258750Y614590D01*
X259770Y616960D01*
X260280Y618990D01*
Y621020D01*
X259770Y623050D01*
X258500Y625090D01*
X256980Y626440D01*
X255200Y626780D01*
X253420Y626100D01*
X251640Y624070D01*
G01X220150Y609850D02*
X218620Y607810D01*
X216840Y606800D01*
X214810Y606460D01*
X212270Y607140D01*
X210490Y608830D01*
X209990Y610860D01*
X210240Y612900D01*
X211260Y614590D01*
X216340Y617970D01*
X218620Y620350D01*
X220150Y623730D01*
X220650Y626780D01*
X209990D01*
G01X195000Y606460D02*
X197030Y607140D01*
X198560Y608830D01*
X199570Y610860D01*
X200330Y613570D01*
X200590Y616620D01*
X200330Y619670D01*
X199570Y622380D01*
X198560Y624410D01*
X197030Y626100D01*
X195000Y626780D01*
X192970Y626100D01*
X191440Y624410D01*
X190430Y622380D01*
X189670Y619670D01*
X189410Y616620D01*
X189670Y613570D01*
X190430Y610860D01*
X191440Y608830D01*
X192970Y607140D01*
X195000Y606460D01*
G01X174680Y626780D02*
Y606460D01*
X177730Y610520D01*
G01Y626780D02*
X171630D01*
G01X151310D02*
Y606460D01*
X160710Y621020D01*
X148010D01*
G01X214850Y1669240D02*
X208100Y1656540D01*
G01X214850D02*
X208100Y1669240D01*
G01X198530D02*
X197400Y1669030D01*
X196110Y1668390D01*
X195310Y1667340D01*
X194990Y1665850D01*
X195310Y1664370D01*
X196270Y1663100D01*
X197720Y1662470D01*
X199330D01*
X200290Y1662040D01*
X201100Y1660990D01*
X201420Y1659500D01*
X200940Y1658020D01*
X199810Y1656960D01*
X198530Y1656540D01*
X197240Y1656960D01*
X196110Y1658020D01*
X195630Y1659500D01*
X195950Y1660990D01*
X196760Y1662040D01*
X197720Y1662470D01*
X199330D01*
X200780Y1663100D01*
X201740Y1664370D01*
X202060Y1665850D01*
X201740Y1667340D01*
X200940Y1668390D01*
X199650Y1669030D01*
X198530Y1669240D01*
G01X164850D02*
X158100Y1656540D01*
G01X164850D02*
X158100Y1669240D01*
G01X148850D02*
X148530Y1666490D01*
X148040Y1664160D01*
X147400Y1662040D01*
X146590Y1659720D01*
X145310Y1656540D01*
X151740D01*
G01X279690Y949240D02*
Y936540D01*
X275670D01*
X274380Y937180D01*
X273580Y938020D01*
X273260Y939720D01*
X273580Y941410D01*
X274540Y942470D01*
X275670Y943100D01*
X279690D01*
G01X275670D02*
X273260Y949240D01*
G01X266580Y938660D02*
X265620Y937390D01*
X264490Y936750D01*
X263200Y936540D01*
X261590Y936960D01*
X260470Y938020D01*
X260150Y939290D01*
X260310Y940560D01*
X260950Y941620D01*
X264170Y943740D01*
X265620Y945220D01*
X266580Y947340D01*
X266900Y949240D01*
X260150D01*
G01X327960Y1051700D02*
X327000Y1053180D01*
X325710Y1054030D01*
X324260Y1054240D01*
X322980Y1054030D01*
X321690Y1052970D01*
X320890Y1051700D01*
X320730Y1050430D01*
X321050Y1048950D01*
X322170Y1047890D01*
X323300Y1047470D01*
X324750D01*
G01X323300D02*
X322330Y1046830D01*
X321530Y1045770D01*
X321210Y1044500D01*
X321530Y1043230D01*
X322330Y1042180D01*
X323780Y1041540D01*
X325230Y1041750D01*
X326680Y1042600D01*
G01X311480Y1054660D02*
X311800Y1054450D01*
Y1054030D01*
X311480Y1053820D01*
X311150Y1054030D01*
Y1054450D01*
X311480Y1054660D01*
G01X298530Y1054240D02*
Y1041540D01*
X300460Y1044080D01*
G01Y1054240D02*
X296600D01*
G01X283640D02*
Y1041540D01*
X289600Y1050640D01*
X281550D01*
G01X259850Y1032540D02*
X258570Y1033600D01*
X257120Y1034230D01*
X255830D01*
X254540Y1033600D01*
X253580Y1032540D01*
X253100Y1031050D01*
X253420Y1029570D01*
X254220Y1028300D01*
X255670Y1027460D01*
X257600Y1027030D01*
X258730Y1026190D01*
X259210Y1024710D01*
X258890Y1023220D01*
X258080Y1022170D01*
X256960Y1021530D01*
X255830D01*
X254710Y1021950D01*
X253740Y1023010D01*
G01X243530Y1034230D02*
Y1021530D01*
X245460Y1024070D01*
G01Y1034230D02*
X241600D01*
G01X259850Y1082540D02*
X258570Y1083600D01*
X257120Y1084230D01*
X255830D01*
X254540Y1083600D01*
X253580Y1082540D01*
X253100Y1081050D01*
X253420Y1079570D01*
X254220Y1078300D01*
X255670Y1077460D01*
X257600Y1077030D01*
X258730Y1076190D01*
X259210Y1074710D01*
X258890Y1073220D01*
X258080Y1072170D01*
X256960Y1071530D01*
X255830D01*
X254710Y1071950D01*
X253740Y1073010D01*
G01X246580Y1073650D02*
X245620Y1072380D01*
X244490Y1071740D01*
X243200Y1071530D01*
X241590Y1071950D01*
X240470Y1073010D01*
X240150Y1074280D01*
X240310Y1075550D01*
X240950Y1076610D01*
X244170Y1078730D01*
X245620Y1080210D01*
X246580Y1082330D01*
X246900Y1084230D01*
X240150D01*
G01X259850Y1182540D02*
X258570Y1183600D01*
X257120Y1184230D01*
X255830D01*
X254540Y1183600D01*
X253580Y1182540D01*
X253100Y1181050D01*
X253420Y1179570D01*
X254220Y1178300D01*
X255670Y1177460D01*
X257600Y1177030D01*
X258730Y1176190D01*
X259210Y1174710D01*
X258890Y1173220D01*
X258080Y1172170D01*
X256960Y1171530D01*
X255830D01*
X254710Y1171950D01*
X253740Y1173010D01*
G01X241590Y1184230D02*
Y1171530D01*
X247550Y1180630D01*
X239500D01*
G01X259850Y1132540D02*
X258570Y1133600D01*
X257120Y1134230D01*
X255830D01*
X254540Y1133600D01*
X253580Y1132540D01*
X253100Y1131050D01*
X253420Y1129570D01*
X254220Y1128300D01*
X255670Y1127460D01*
X257600Y1127030D01*
X258730Y1126190D01*
X259210Y1124710D01*
X258890Y1123220D01*
X258080Y1122170D01*
X256960Y1121530D01*
X255830D01*
X254710Y1121950D01*
X253740Y1123010D01*
G01X247060Y1131690D02*
X246100Y1133170D01*
X244810Y1134020D01*
X243360Y1134230D01*
X242080Y1134020D01*
X240790Y1132960D01*
X239990Y1131690D01*
X239830Y1130420D01*
X240150Y1128940D01*
X241270Y1127880D01*
X242400Y1127460D01*
X243850D01*
G01X242400D02*
X241430Y1126820D01*
X240630Y1125760D01*
X240310Y1124490D01*
X240630Y1123220D01*
X241430Y1122170D01*
X242880Y1121530D01*
X244330Y1121740D01*
X245780Y1122590D01*
G01X259850Y1282540D02*
X258570Y1283600D01*
X257120Y1284230D01*
X255830D01*
X254540Y1283600D01*
X253580Y1282540D01*
X253100Y1281050D01*
X253420Y1279570D01*
X254220Y1278300D01*
X255670Y1277460D01*
X257600Y1277030D01*
X258730Y1276190D01*
X259210Y1274710D01*
X258890Y1273220D01*
X258080Y1272170D01*
X256960Y1271530D01*
X255830D01*
X254710Y1271950D01*
X253740Y1273010D01*
G01X246580Y1278940D02*
X245460Y1277460D01*
X244490Y1276610D01*
X243200Y1276190D01*
X242080Y1276610D01*
X241270Y1277460D01*
X240630Y1278730D01*
X240470Y1280210D01*
X240630Y1281480D01*
X241270Y1282750D01*
X242240Y1283810D01*
X243360Y1284230D01*
X244650Y1283810D01*
X245780Y1282540D01*
X246420Y1280630D01*
X246580Y1278520D01*
X246260Y1275760D01*
X245780Y1274280D01*
X244970Y1272800D01*
X243850Y1271740D01*
X242720Y1271530D01*
X241590Y1271950D01*
X240790Y1273010D01*
G01X259850Y1232540D02*
X258570Y1233600D01*
X257120Y1234230D01*
X255830D01*
X254540Y1233600D01*
X253580Y1232540D01*
X253100Y1231050D01*
X253420Y1229570D01*
X254220Y1228300D01*
X255670Y1227460D01*
X257600Y1227030D01*
X258730Y1226190D01*
X259210Y1224710D01*
X258890Y1223220D01*
X258080Y1222170D01*
X256960Y1221530D01*
X255830D01*
X254710Y1221950D01*
X253740Y1223010D01*
G01X247060Y1232330D02*
X246100Y1233380D01*
X244970Y1234020D01*
X243530Y1234230D01*
X242080Y1233810D01*
X240950Y1232960D01*
X240150Y1231480D01*
X239990Y1229790D01*
X240310Y1228090D01*
X241110Y1227030D01*
X242240Y1226190D01*
X243360Y1225980D01*
X244490Y1226190D01*
X245940Y1227030D01*
X245460Y1221530D01*
X241110D01*
G01X301490Y1331700D02*
X300530Y1333180D01*
X299240Y1334030D01*
X297790Y1334240D01*
X296510Y1334030D01*
X295220Y1332970D01*
X294420Y1331700D01*
X294260Y1330430D01*
X294580Y1328950D01*
X295700Y1327890D01*
X296830Y1327470D01*
X298280D01*
G01X296830D02*
X295860Y1326830D01*
X295060Y1325770D01*
X294740Y1324500D01*
X295060Y1323230D01*
X295860Y1322180D01*
X297310Y1321540D01*
X298760Y1321750D01*
X300210Y1322600D01*
G01X285010Y1334660D02*
X285330Y1334450D01*
Y1334030D01*
X285010Y1333820D01*
X284680Y1334030D01*
Y1334450D01*
X285010Y1334660D01*
G01X272060Y1334240D02*
Y1321540D01*
X273990Y1324080D01*
G01Y1334240D02*
X270130D01*
G01X259850Y1332540D02*
X258570Y1333600D01*
X257120Y1334230D01*
X255830D01*
X254540Y1333600D01*
X253580Y1332540D01*
X253100Y1331050D01*
X253420Y1329570D01*
X254220Y1328300D01*
X255670Y1327460D01*
X257600Y1327030D01*
X258730Y1326190D01*
X259210Y1324710D01*
X258890Y1323220D01*
X258080Y1322170D01*
X256960Y1321530D01*
X255830D01*
X254710Y1321950D01*
X253740Y1323010D01*
G01X243850Y1334230D02*
X243530Y1331480D01*
X243040Y1329150D01*
X242400Y1327030D01*
X241590Y1324710D01*
X240310Y1321530D01*
X246740D01*
G01X296160Y1444230D02*
Y1431530D01*
X292140D01*
X290850Y1432170D01*
X290050Y1433010D01*
X289730Y1434710D01*
X290050Y1436400D01*
X291010Y1437460D01*
X292140Y1438090D01*
X296160D01*
G01X292140D02*
X289730Y1444230D01*
G01X280000D02*
Y1431530D01*
X281930Y1434070D01*
G01Y1444230D02*
X278070D01*
G01X267050D02*
Y1431530D01*
X268980Y1434070D01*
G01Y1444230D02*
X265120D01*
G01X264850Y1669240D02*
X258100Y1656540D01*
G01X264850D02*
X258100Y1669240D01*
G01X251260Y1667760D02*
X250130Y1668820D01*
X248850Y1669240D01*
X247560Y1668820D01*
X246430Y1667550D01*
X245630Y1665640D01*
X245310Y1663740D01*
Y1661410D01*
X245630Y1659500D01*
X246430Y1657810D01*
X247400Y1656960D01*
X248530Y1656540D01*
X249810Y1656960D01*
X250780Y1657810D01*
X251420Y1659080D01*
X251740Y1660770D01*
X251420Y1662250D01*
X250620Y1663740D01*
X249650Y1664580D01*
X248530Y1664800D01*
X247240Y1664370D01*
X246270Y1663310D01*
X245310Y1661410D01*
G01X407960Y1031700D02*
X407000Y1033180D01*
X405710Y1034030D01*
X404260Y1034240D01*
X402980Y1034030D01*
X401690Y1032970D01*
X400890Y1031700D01*
X400730Y1030430D01*
X401050Y1028950D01*
X402170Y1027890D01*
X403300Y1027470D01*
X404750D01*
G01X403300D02*
X402330Y1026830D01*
X401530Y1025770D01*
X401210Y1024500D01*
X401530Y1023230D01*
X402330Y1022180D01*
X403780Y1021540D01*
X405230Y1021750D01*
X406680Y1022600D01*
G01X391480Y1034660D02*
X391800Y1034450D01*
Y1034030D01*
X391480Y1033820D01*
X391150Y1034030D01*
Y1034450D01*
X391480Y1034660D01*
G01X378530Y1034240D02*
Y1021540D01*
X380460Y1024080D01*
G01Y1034240D02*
X376600D01*
G01X369110Y1031700D02*
X368150Y1033180D01*
X366860Y1034030D01*
X365410Y1034240D01*
X364130Y1034030D01*
X362840Y1032970D01*
X362040Y1031700D01*
X361880Y1030430D01*
X362200Y1028950D01*
X363320Y1027890D01*
X364450Y1027470D01*
X365900D01*
G01X364450D02*
X363480Y1026830D01*
X362680Y1025770D01*
X362360Y1024500D01*
X362680Y1023230D01*
X363480Y1022180D01*
X364930Y1021540D01*
X366380Y1021750D01*
X367830Y1022600D01*
G01X326330Y1669240D02*
X319580Y1656540D01*
G01X326330D02*
X319580Y1669240D01*
G01X310010D02*
Y1656540D01*
X311940Y1659080D01*
G01Y1669240D02*
X308080D01*
G01X297060D02*
Y1656540D01*
X298990Y1659080D01*
G01Y1669240D02*
X295130D01*
G01X376330D02*
X369580Y1656540D01*
G01X376330D02*
X369580Y1669240D01*
G01X360010D02*
Y1656540D01*
X361940Y1659080D01*
G01Y1669240D02*
X358080D01*
G01X347060Y1656540D02*
X348340Y1656960D01*
X349310Y1658020D01*
X349950Y1659290D01*
X350430Y1660990D01*
X350590Y1662890D01*
X350430Y1664800D01*
X349950Y1666490D01*
X349310Y1667760D01*
X348340Y1668820D01*
X347060Y1669240D01*
X345770Y1668820D01*
X344800Y1667760D01*
X344160Y1666490D01*
X343680Y1664800D01*
X343520Y1662890D01*
X343680Y1660990D01*
X344160Y1659290D01*
X344800Y1658020D01*
X345770Y1656960D01*
X347060Y1656540D01*
G01X409690Y949240D02*
Y936540D01*
X405670D01*
X404380Y937180D01*
X403580Y938020D01*
X403260Y939720D01*
X403580Y941410D01*
X404540Y942470D01*
X405670Y943100D01*
X409690D01*
G01X405670D02*
X403260Y949240D01*
G01X397060Y946700D02*
X396100Y948180D01*
X394810Y949030D01*
X393360Y949240D01*
X392080Y949030D01*
X390790Y947970D01*
X389990Y946700D01*
X389830Y945430D01*
X390150Y943950D01*
X391270Y942890D01*
X392400Y942470D01*
X393850D01*
G01X392400D02*
X391430Y941830D01*
X390630Y940770D01*
X390310Y939500D01*
X390630Y938230D01*
X391430Y937180D01*
X392880Y936540D01*
X394330Y936750D01*
X395780Y937600D01*
G01X457960Y1011700D02*
X457000Y1013180D01*
X455710Y1014030D01*
X454260Y1014240D01*
X452980Y1014030D01*
X451690Y1012970D01*
X450890Y1011700D01*
X450730Y1010430D01*
X451050Y1008950D01*
X452170Y1007890D01*
X453300Y1007470D01*
X454750D01*
G01X453300D02*
X452330Y1006830D01*
X451530Y1005770D01*
X451210Y1004500D01*
X451530Y1003230D01*
X452330Y1002180D01*
X453780Y1001540D01*
X455230Y1001750D01*
X456680Y1002600D01*
G01X441480Y1014660D02*
X441800Y1014450D01*
Y1014030D01*
X441480Y1013820D01*
X441150Y1014030D01*
Y1014450D01*
X441480Y1014660D01*
G01X428530Y1014240D02*
Y1001540D01*
X430460Y1004080D01*
G01Y1014240D02*
X426600D01*
G01X418630Y1003660D02*
X417670Y1002390D01*
X416540Y1001750D01*
X415250Y1001540D01*
X413640Y1001960D01*
X412520Y1003020D01*
X412200Y1004290D01*
X412360Y1005560D01*
X413000Y1006620D01*
X416220Y1008740D01*
X417670Y1010220D01*
X418630Y1012340D01*
X418950Y1014240D01*
X412200D01*
G01X426010Y1573660D02*
X425050Y1572390D01*
X423920Y1571750D01*
X422630Y1571540D01*
X421020Y1571960D01*
X419900Y1573020D01*
X419580Y1574290D01*
X419740Y1575560D01*
X420380Y1576620D01*
X423600Y1578740D01*
X425050Y1580220D01*
X426010Y1582340D01*
X426330Y1584240D01*
X419580D01*
G01X410010Y1584660D02*
X410330Y1584450D01*
Y1584030D01*
X410010Y1583820D01*
X409680Y1584030D01*
Y1584450D01*
X410010Y1584660D01*
G01X397060Y1584240D02*
Y1571540D01*
X398990Y1574080D01*
G01Y1584240D02*
X395130D01*
G01X451010Y1618660D02*
X450050Y1617390D01*
X448920Y1616750D01*
X447630Y1616540D01*
X446020Y1616960D01*
X444900Y1618020D01*
X444580Y1619290D01*
X444740Y1620560D01*
X445380Y1621620D01*
X448600Y1623740D01*
X450050Y1625220D01*
X451010Y1627340D01*
X451330Y1629240D01*
X444580D01*
G01X435010Y1629660D02*
X435330Y1629450D01*
Y1629030D01*
X435010Y1628820D01*
X434680Y1629030D01*
Y1629450D01*
X435010Y1629660D01*
G01X425590Y1626700D02*
X424630Y1628180D01*
X423340Y1629030D01*
X421890Y1629240D01*
X420610Y1629030D01*
X419320Y1627970D01*
X418520Y1626700D01*
X418360Y1625430D01*
X418680Y1623950D01*
X419800Y1622890D01*
X420930Y1622470D01*
X422380D01*
G01X420930D02*
X419960Y1621830D01*
X419160Y1620770D01*
X418840Y1619500D01*
X419160Y1618230D01*
X419960Y1617180D01*
X421410Y1616540D01*
X422860Y1616750D01*
X424310Y1617600D01*
G01X532960Y49240D02*
Y36540D01*
X534890Y39080D01*
G01Y49240D02*
X531030D01*
G01X520010Y49660D02*
X520330Y49450D01*
Y49030D01*
X520010Y48820D01*
X519680Y49030D01*
Y49450D01*
X520010Y49660D01*
G01X510590Y47340D02*
X509630Y48390D01*
X508500Y49030D01*
X507060Y49240D01*
X505610Y48820D01*
X504480Y47970D01*
X503680Y46490D01*
X503520Y44800D01*
X503840Y43100D01*
X504640Y42040D01*
X505770Y41200D01*
X506890Y40990D01*
X508020Y41200D01*
X509470Y42040D01*
X508990Y36540D01*
X504640D01*
G01X539690Y949240D02*
Y936540D01*
X535670D01*
X534380Y937180D01*
X533580Y938020D01*
X533260Y939720D01*
X533580Y941410D01*
X534540Y942470D01*
X535670Y943100D01*
X539690D01*
G01X535670D02*
X533260Y949240D01*
G01X521590D02*
Y936540D01*
X527550Y945640D01*
X519500D01*
G01X596490Y1616700D02*
X595530Y1618180D01*
X594240Y1619030D01*
X592790Y1619240D01*
X591510Y1619030D01*
X590220Y1617970D01*
X589420Y1616700D01*
X589260Y1615430D01*
X589580Y1613950D01*
X590700Y1612890D01*
X591830Y1612470D01*
X593280D01*
G01X591830D02*
X590860Y1611830D01*
X590060Y1610770D01*
X589740Y1609500D01*
X590060Y1608230D01*
X590860Y1607180D01*
X592310Y1606540D01*
X593760Y1606750D01*
X595210Y1607600D01*
G01X580010Y1619660D02*
X580330Y1619450D01*
Y1619030D01*
X580010Y1618820D01*
X579680Y1619030D01*
Y1619450D01*
X580010Y1619660D01*
G01X570110Y1608660D02*
X569150Y1607390D01*
X568020Y1606750D01*
X566730Y1606540D01*
X565120Y1606960D01*
X564000Y1608020D01*
X563680Y1609290D01*
X563840Y1610560D01*
X564480Y1611620D01*
X567700Y1613740D01*
X569150Y1615220D01*
X570110Y1617340D01*
X570430Y1619240D01*
X563680D01*
G01X692950Y521530D02*
Y534230D01*
G01X696640Y521530D02*
X689250D01*
G01X684020D02*
X680000Y534230D01*
X675970Y521530D01*
G01X667050Y534230D02*
Y521530D01*
X668980Y524070D01*
G01Y534230D02*
X665120D01*
G01X669690Y949240D02*
Y936540D01*
X665670D01*
X664380Y937180D01*
X663580Y938020D01*
X663260Y939720D01*
X663580Y941410D01*
X664540Y942470D01*
X665670Y943100D01*
X669690D01*
G01X665670D02*
X663260Y949240D01*
G01X657060Y947340D02*
X656100Y948390D01*
X654970Y949030D01*
X653530Y949240D01*
X652080Y948820D01*
X650950Y947970D01*
X650150Y946490D01*
X649990Y944800D01*
X650310Y943100D01*
X651110Y942040D01*
X652240Y941200D01*
X653360Y940990D01*
X654490Y941200D01*
X655940Y942040D01*
X655460Y936540D01*
X651110D01*
G01X687960Y1001700D02*
X687000Y1003180D01*
X685710Y1004030D01*
X684260Y1004240D01*
X682980Y1004030D01*
X681690Y1002970D01*
X680890Y1001700D01*
X680730Y1000430D01*
X681050Y998950D01*
X682170Y997890D01*
X683300Y997470D01*
X684750D01*
G01X683300D02*
X682330Y996830D01*
X681530Y995770D01*
X681210Y994500D01*
X681530Y993230D01*
X682330Y992180D01*
X683780Y991540D01*
X685230Y991750D01*
X686680Y992600D01*
G01X671480Y1004660D02*
X671800Y1004450D01*
Y1004030D01*
X671480Y1003820D01*
X671150Y1004030D01*
Y1004450D01*
X671480Y1004660D01*
G01X658530Y1004240D02*
Y991540D01*
X660460Y994080D01*
G01Y1004240D02*
X656600D01*
G01X645580D02*
Y991540D01*
X647510Y994080D01*
G01Y1004240D02*
X643650D01*
G01X646490Y1616700D02*
X645530Y1618180D01*
X644240Y1619030D01*
X642790Y1619240D01*
X641510Y1619030D01*
X640220Y1617970D01*
X639420Y1616700D01*
X639260Y1615430D01*
X639580Y1613950D01*
X640700Y1612890D01*
X641830Y1612470D01*
X643280D01*
G01X641830D02*
X640860Y1611830D01*
X640060Y1610770D01*
X639740Y1609500D01*
X640060Y1608230D01*
X640860Y1607180D01*
X642310Y1606540D01*
X643760Y1606750D01*
X645210Y1607600D01*
G01X630010Y1619660D02*
X630330Y1619450D01*
Y1619030D01*
X630010Y1618820D01*
X629680Y1619030D01*
Y1619450D01*
X630010Y1619660D01*
G01X620590Y1616700D02*
X619630Y1618180D01*
X618340Y1619030D01*
X616890Y1619240D01*
X615610Y1619030D01*
X614320Y1617970D01*
X613520Y1616700D01*
X613360Y1615430D01*
X613680Y1613950D01*
X614800Y1612890D01*
X615930Y1612470D01*
X617380D01*
G01X615930D02*
X614960Y1611830D01*
X614160Y1610770D01*
X613840Y1609500D01*
X614160Y1608230D01*
X614960Y1607180D01*
X616410Y1606540D01*
X617860Y1606750D01*
X619310Y1607600D01*
G01X747960Y1021700D02*
X747000Y1023180D01*
X745710Y1024030D01*
X744260Y1024240D01*
X742980Y1024030D01*
X741690Y1022970D01*
X740890Y1021700D01*
X740730Y1020430D01*
X741050Y1018950D01*
X742170Y1017890D01*
X743300Y1017470D01*
X744750D01*
G01X743300D02*
X742330Y1016830D01*
X741530Y1015770D01*
X741210Y1014500D01*
X741530Y1013230D01*
X742330Y1012180D01*
X743780Y1011540D01*
X745230Y1011750D01*
X746680Y1012600D01*
G01X731480Y1024660D02*
X731800Y1024450D01*
Y1024030D01*
X731480Y1023820D01*
X731150Y1024030D01*
Y1024450D01*
X731480Y1024660D01*
G01X718530Y1024240D02*
Y1011540D01*
X720460Y1014080D01*
G01Y1024240D02*
X716600D01*
G01X705580Y1011540D02*
X706860Y1011960D01*
X707830Y1013020D01*
X708470Y1014290D01*
X708950Y1015990D01*
X709110Y1017890D01*
X708950Y1019800D01*
X708470Y1021490D01*
X707830Y1022760D01*
X706860Y1023820D01*
X705580Y1024240D01*
X704290Y1023820D01*
X703320Y1022760D01*
X702680Y1021490D01*
X702200Y1019800D01*
X702040Y1017890D01*
X702200Y1015990D01*
X702680Y1014290D01*
X703320Y1013020D01*
X704290Y1011960D01*
X705580Y1011540D01*
G01X776010Y1573660D02*
X775050Y1572390D01*
X773920Y1571750D01*
X772630Y1571540D01*
X771020Y1571960D01*
X769900Y1573020D01*
X769580Y1574290D01*
X769740Y1575560D01*
X770380Y1576620D01*
X773600Y1578740D01*
X775050Y1580220D01*
X776010Y1582340D01*
X776330Y1584240D01*
X769580D01*
G01X760010Y1584660D02*
X760330Y1584450D01*
Y1584030D01*
X760010Y1583820D01*
X759680Y1584030D01*
Y1584450D01*
X760010Y1584660D01*
G01X745120Y1584240D02*
Y1571540D01*
X751080Y1580640D01*
X743030D01*
G01X712960Y1541530D02*
Y1554230D01*
G01X716650Y1541530D02*
X709260D01*
G01X704030D02*
X700010Y1554230D01*
X695980Y1541530D01*
G01X690590Y1551690D02*
X689630Y1553170D01*
X688340Y1554020D01*
X686890Y1554230D01*
X685610Y1554020D01*
X684320Y1552960D01*
X683520Y1551690D01*
X683360Y1550420D01*
X683680Y1548940D01*
X684800Y1547880D01*
X685930Y1547460D01*
X687380D01*
G01X685930D02*
X684960Y1546820D01*
X684160Y1545760D01*
X683840Y1544490D01*
X684160Y1543220D01*
X684960Y1542170D01*
X686410Y1541530D01*
X687860Y1541740D01*
X689310Y1542590D01*
G01X712950Y1561530D02*
Y1574230D01*
G01X716640Y1561530D02*
X709250D01*
G01X704020D02*
X700000Y1574230D01*
X695970Y1561530D01*
G01X690100Y1563650D02*
X689140Y1562380D01*
X688010Y1561740D01*
X686720Y1561530D01*
X685110Y1561950D01*
X683990Y1563010D01*
X683670Y1564280D01*
X683830Y1565550D01*
X684470Y1566610D01*
X687690Y1568730D01*
X689140Y1570210D01*
X690100Y1572330D01*
X690420Y1574230D01*
X683670D01*
G01X832960Y439240D02*
Y426540D01*
X834890Y429080D01*
G01Y439240D02*
X831030D01*
G01X820010Y439660D02*
X820330Y439450D01*
Y439030D01*
X820010Y438820D01*
X819680Y439030D01*
Y439450D01*
X820010Y439660D01*
G01X805120Y439240D02*
Y426540D01*
X811080Y435640D01*
X803030D01*
G01X812960Y489240D02*
Y476540D01*
X814890Y479080D01*
G01Y489240D02*
X811030D01*
G01X800010Y489660D02*
X800330Y489450D01*
Y489030D01*
X800010Y488820D01*
X799680Y489030D01*
Y489450D01*
X800010Y489660D01*
G01X790590Y486700D02*
X789630Y488180D01*
X788340Y489030D01*
X786890Y489240D01*
X785610Y489030D01*
X784320Y487970D01*
X783520Y486700D01*
X783360Y485430D01*
X783680Y483950D01*
X784800Y482890D01*
X785930Y482470D01*
X787380D01*
G01X785930D02*
X784960Y481830D01*
X784160Y480770D01*
X783840Y479500D01*
X784160Y478230D01*
X784960Y477180D01*
X786410Y476540D01*
X787860Y476750D01*
X789310Y477600D01*
G01X799690Y949230D02*
Y936530D01*
X795670D01*
X794380Y937170D01*
X793580Y938010D01*
X793260Y939710D01*
X793580Y941400D01*
X794540Y942460D01*
X795670Y943090D01*
X799690D01*
G01X795670D02*
X793260Y949230D01*
G01X786580Y943940D02*
X785460Y942460D01*
X784490Y941610D01*
X783200Y941190D01*
X782080Y941610D01*
X781270Y942460D01*
X780630Y943730D01*
X780470Y945210D01*
X780630Y946480D01*
X781270Y947750D01*
X782240Y948810D01*
X783360Y949230D01*
X784650Y948810D01*
X785780Y947540D01*
X786420Y945630D01*
X786580Y943520D01*
X786260Y940760D01*
X785780Y939280D01*
X784970Y937800D01*
X783850Y936740D01*
X782720Y936530D01*
X781590Y936950D01*
X780790Y938010D01*
G01X831490Y1071700D02*
X830530Y1073180D01*
X829240Y1074030D01*
X827790Y1074240D01*
X826510Y1074030D01*
X825220Y1072970D01*
X824420Y1071700D01*
X824260Y1070430D01*
X824580Y1068950D01*
X825700Y1067890D01*
X826830Y1067470D01*
X828280D01*
G01X826830D02*
X825860Y1066830D01*
X825060Y1065770D01*
X824740Y1064500D01*
X825060Y1063230D01*
X825860Y1062180D01*
X827310Y1061540D01*
X828760Y1061750D01*
X830210Y1062600D01*
G01X815010Y1074660D02*
X815330Y1074450D01*
Y1074030D01*
X815010Y1073820D01*
X814680Y1074030D01*
Y1074450D01*
X815010Y1074660D01*
G01X804790Y1072760D02*
X803660Y1073820D01*
X802380Y1074240D01*
X801090Y1073820D01*
X799960Y1072550D01*
X799160Y1070640D01*
X798840Y1068740D01*
Y1066410D01*
X799160Y1064500D01*
X799960Y1062810D01*
X800930Y1061960D01*
X802060Y1061540D01*
X803340Y1061960D01*
X804310Y1062810D01*
X804950Y1064080D01*
X805270Y1065770D01*
X804950Y1067250D01*
X804150Y1068740D01*
X803180Y1069580D01*
X802060Y1069800D01*
X800770Y1069370D01*
X799800Y1068310D01*
X798840Y1066410D01*
G01X836490Y1461700D02*
X835530Y1463180D01*
X834240Y1464030D01*
X832790Y1464240D01*
X831510Y1464030D01*
X830220Y1462970D01*
X829420Y1461700D01*
X829260Y1460430D01*
X829580Y1458950D01*
X830700Y1457890D01*
X831830Y1457470D01*
X833280D01*
G01X831830D02*
X830860Y1456830D01*
X830060Y1455770D01*
X829740Y1454500D01*
X830060Y1453230D01*
X830860Y1452180D01*
X832310Y1451540D01*
X833760Y1451750D01*
X835210Y1452600D01*
G01X820010Y1464660D02*
X820330Y1464450D01*
Y1464030D01*
X820010Y1463820D01*
X819680Y1464030D01*
Y1464450D01*
X820010Y1464660D01*
G01X810590Y1462340D02*
X809630Y1463390D01*
X808500Y1464030D01*
X807060Y1464240D01*
X805610Y1463820D01*
X804480Y1462970D01*
X803680Y1461490D01*
X803520Y1459800D01*
X803840Y1458100D01*
X804640Y1457040D01*
X805770Y1456200D01*
X806890Y1455990D01*
X808020Y1456200D01*
X809470Y1457040D01*
X808990Y1451540D01*
X804640D01*
G01X796490Y1536700D02*
X795530Y1538180D01*
X794240Y1539030D01*
X792790Y1539240D01*
X791510Y1539030D01*
X790220Y1537970D01*
X789420Y1536700D01*
X789260Y1535430D01*
X789580Y1533950D01*
X790700Y1532890D01*
X791830Y1532470D01*
X793280D01*
G01X791830D02*
X790860Y1531830D01*
X790060Y1530770D01*
X789740Y1529500D01*
X790060Y1528230D01*
X790860Y1527180D01*
X792310Y1526540D01*
X793760Y1526750D01*
X795210Y1527600D01*
G01X780010Y1539660D02*
X780330Y1539450D01*
Y1539030D01*
X780010Y1538820D01*
X779680Y1539030D01*
Y1539450D01*
X780010Y1539660D01*
G01X765120Y1539240D02*
Y1526540D01*
X771080Y1535640D01*
X763030D01*
G01X856010Y1513660D02*
X855050Y1512390D01*
X853920Y1511750D01*
X852630Y1511540D01*
X851020Y1511960D01*
X849900Y1513020D01*
X849580Y1514290D01*
X849740Y1515560D01*
X850380Y1516620D01*
X853600Y1518740D01*
X855050Y1520220D01*
X856010Y1522340D01*
X856330Y1524240D01*
X849580D01*
G01X840010Y1524660D02*
X840330Y1524450D01*
Y1524030D01*
X840010Y1523820D01*
X839680Y1524030D01*
Y1524450D01*
X840010Y1524660D01*
G01X830110Y1513660D02*
X829150Y1512390D01*
X828020Y1511750D01*
X826730Y1511540D01*
X825120Y1511960D01*
X824000Y1513020D01*
X823680Y1514290D01*
X823840Y1515560D01*
X824480Y1516620D01*
X827700Y1518740D01*
X829150Y1520220D01*
X830110Y1522340D01*
X830430Y1524240D01*
X823680D01*
G01X861490Y1116700D02*
X860530Y1118180D01*
X859240Y1119030D01*
X857790Y1119240D01*
X856510Y1119030D01*
X855220Y1117970D01*
X854420Y1116700D01*
X854260Y1115430D01*
X854580Y1113950D01*
X855700Y1112890D01*
X856830Y1112470D01*
X858280D01*
G01X856830D02*
X855860Y1111830D01*
X855060Y1110770D01*
X854740Y1109500D01*
X855060Y1108230D01*
X855860Y1107180D01*
X857310Y1106540D01*
X858760Y1106750D01*
X860210Y1107600D01*
G01X845010Y1119660D02*
X845330Y1119450D01*
Y1119030D01*
X845010Y1118820D01*
X844680Y1119030D01*
Y1119450D01*
X845010Y1119660D01*
G01X832060Y1119240D02*
X830930Y1119030D01*
X829640Y1118390D01*
X828840Y1117340D01*
X828520Y1115850D01*
X828840Y1114370D01*
X829800Y1113100D01*
X831250Y1112470D01*
X832860D01*
X833820Y1112040D01*
X834630Y1110990D01*
X834950Y1109500D01*
X834470Y1108020D01*
X833340Y1106960D01*
X832060Y1106540D01*
X830770Y1106960D01*
X829640Y1108020D01*
X829160Y1109500D01*
X829480Y1110990D01*
X830290Y1112040D01*
X831250Y1112470D01*
X832860D01*
X834310Y1113100D01*
X835270Y1114370D01*
X835590Y1115850D01*
X835270Y1117340D01*
X834470Y1118390D01*
X833180Y1119030D01*
X832060Y1119240D01*
G01X906490Y1271700D02*
X905530Y1273180D01*
X904240Y1274030D01*
X902790Y1274240D01*
X901510Y1274030D01*
X900220Y1272970D01*
X899420Y1271700D01*
X899260Y1270430D01*
X899580Y1268950D01*
X900700Y1267890D01*
X901830Y1267470D01*
X903280D01*
G01X901830D02*
X900860Y1266830D01*
X900060Y1265770D01*
X899740Y1264500D01*
X900060Y1263230D01*
X900860Y1262180D01*
X902310Y1261540D01*
X903760Y1261750D01*
X905210Y1262600D01*
G01X890010Y1274660D02*
X890330Y1274450D01*
Y1274030D01*
X890010Y1273820D01*
X889680Y1274030D01*
Y1274450D01*
X890010Y1274660D01*
G01X877380Y1274240D02*
X877060Y1271490D01*
X876570Y1269160D01*
X875930Y1267040D01*
X875120Y1264720D01*
X873840Y1261540D01*
X880270D01*
G01X906490Y1321700D02*
X905530Y1323180D01*
X904240Y1324030D01*
X902790Y1324240D01*
X901510Y1324030D01*
X900220Y1322970D01*
X899420Y1321700D01*
X899260Y1320430D01*
X899580Y1318950D01*
X900700Y1317890D01*
X901830Y1317470D01*
X903280D01*
G01X901830D02*
X900860Y1316830D01*
X900060Y1315770D01*
X899740Y1314500D01*
X900060Y1313230D01*
X900860Y1312180D01*
X902310Y1311540D01*
X903760Y1311750D01*
X905210Y1312600D01*
G01X890010Y1324660D02*
X890330Y1324450D01*
Y1324030D01*
X890010Y1323820D01*
X889680Y1324030D01*
Y1324450D01*
X890010Y1324660D01*
G01X880110Y1318950D02*
X878990Y1317470D01*
X878020Y1316620D01*
X876730Y1316200D01*
X875610Y1316620D01*
X874800Y1317470D01*
X874160Y1318740D01*
X874000Y1320220D01*
X874160Y1321490D01*
X874800Y1322760D01*
X875770Y1323820D01*
X876890Y1324240D01*
X878180Y1323820D01*
X879310Y1322550D01*
X879950Y1320640D01*
X880110Y1318530D01*
X879790Y1315770D01*
X879310Y1314290D01*
X878500Y1312810D01*
X877380Y1311750D01*
X876250Y1311540D01*
X875120Y1311960D01*
X874320Y1313020D01*
G01X974850Y219240D02*
X968100Y206540D01*
G01X974850D02*
X968100Y219240D01*
G01X956590D02*
Y206540D01*
X962550Y215640D01*
X954500D01*
G01X974850Y269240D02*
X968100Y256540D01*
G01X974850D02*
X968100Y269240D01*
G01X962060Y266700D02*
X961100Y268180D01*
X959810Y269030D01*
X958360Y269240D01*
X957080Y269030D01*
X955790Y267970D01*
X954990Y266700D01*
X954830Y265430D01*
X955150Y263950D01*
X956270Y262890D01*
X957400Y262470D01*
X958850D01*
G01X957400D02*
X956430Y261830D01*
X955630Y260770D01*
X955310Y259500D01*
X955630Y258230D01*
X956430Y257180D01*
X957880Y256540D01*
X959330Y256750D01*
X960780Y257600D01*
G01X974850Y369240D02*
X968100Y356540D01*
G01X974850D02*
X968100Y369240D01*
G01X961580Y363950D02*
X960460Y362470D01*
X959490Y361620D01*
X958200Y361200D01*
X957080Y361620D01*
X956270Y362470D01*
X955630Y363740D01*
X955470Y365220D01*
X955630Y366490D01*
X956270Y367760D01*
X957240Y368820D01*
X958360Y369240D01*
X959650Y368820D01*
X960780Y367550D01*
X961420Y365640D01*
X961580Y363530D01*
X961260Y360770D01*
X960780Y359290D01*
X959970Y357810D01*
X958850Y356750D01*
X957720Y356540D01*
X956590Y356960D01*
X955790Y358020D01*
G01X974850Y319240D02*
X968100Y306540D01*
G01X974850D02*
X968100Y319240D01*
G01X962060Y317340D02*
X961100Y318390D01*
X959970Y319030D01*
X958530Y319240D01*
X957080Y318820D01*
X955950Y317970D01*
X955150Y316490D01*
X954990Y314800D01*
X955310Y313100D01*
X956110Y312040D01*
X957240Y311200D01*
X958360Y310990D01*
X959490Y311200D01*
X960940Y312040D01*
X960460Y306540D01*
X956110D01*
M02*
